<svg width="204" height="106" viewBox="0 0 204 106" fill="none" xmlns="http://www.w3.org/2000/svg">
<path fill-rule="evenodd" clip-rule="evenodd" d="M9.53516 9.4729H97.2323V96.5301H9.53516V9.4729ZM62.5728 59.8919V78.4342C62.5728 80.6471 62.9147 82.5269 63.6035 84.0772C64.2882 85.6273 65.2457 86.8862 66.4724 87.862C67.6959 88.8379 69.1617 89.5455 70.8635 89.9844C72.5664 90.4297 74.4348 90.6503 76.4657 90.6503C78.5272 90.6503 80.4187 90.4297 82.1372 89.9844C83.8545 89.5453 85.3193 88.8379 86.5304 87.862C87.7383 86.8862 88.6821 85.6273 89.3521 84.0772C90.0242 82.5269 90.3597 80.6471 90.3597 78.4342V59.8919H80.0548V79.4537C80.0548 80.8415 79.7222 81.8299 79.0659 82.4188C78.4093 83.0087 77.5423 83.303 76.4654 83.303C75.3909 83.303 74.5309 83.0087 73.8873 82.4188C73.2465 81.8299 72.9268 80.8415 72.9268 79.4537V59.8919H62.5728ZM44.5979 83.3903C44.3872 83.3903 44.2855 83.2865 44.2855 83.0814C44.1043 81.7841 43.9019 80.4045 43.6781 78.9463C43.4526 77.4847 43.2073 75.9938 42.9378 74.4749C42.6683 72.9539 42.3988 71.4661 42.1314 70.0013C41.8598 68.5447 41.6008 67.1694 41.345 65.8897C41.1703 64.9973 41.0036 64.1676 40.8488 63.3972C40.7808 63.0584 40.715 62.731 40.6519 62.4149C40.4441 61.3796 40.2629 60.5401 40.1129 59.8919H30.388V89.8542H35.7207V64.6286C35.7207 64.4797 35.7814 64.407 35.899 64.407C36.1086 64.407 36.2135 64.4797 36.2135 64.6286C36.5134 66.0434 36.8135 67.5042 37.1101 69.0084C37.4088 70.5137 37.754 72.2252 38.1408 74.1414C38.5289 76.062 38.9839 78.2882 39.5092 80.8237C40.0324 83.3621 40.668 86.3719 41.4134 89.8539H47.4666C47.7221 88.6417 47.9665 87.4834 48.1995 86.3788C48.6473 84.2556 49.0534 82.3307 49.4169 80.6021C49.9685 77.9782 50.4383 75.6843 50.8261 73.7212C51.2164 71.7588 51.5433 70.0484 51.815 68.589C52.0823 67.1273 52.3381 65.806 52.5762 64.6283C52.5762 64.4794 52.6372 64.4067 52.7555 64.4067C52.9633 64.4067 53.0701 64.4794 53.0701 64.6283V89.8539H58.8957V59.8916H49.2148C49.0038 60.779 48.7051 62.1179 48.3161 63.921C47.9291 65.7176 47.5256 67.7183 47.1072 69.9134C46.6865 72.1128 46.2724 74.3705 45.852 76.6862C45.4335 79.0033 45.0897 81.1329 44.8213 83.0814C44.8213 83.2862 44.7448 83.3903 44.5979 83.3903ZM18.7342 59.8919H15.7762V89.8542H27.3395V87.6412H18.7342V59.8919Z" fill="#091414"/>
<path fill-rule="evenodd" clip-rule="evenodd" d="M106.766 9.4729H194.463V96.5301H106.766V9.4729ZM113.218 48.3949V54.7578H117.601V53.8142H114.414V48.3949H113.218ZM121.965 54.8878C120.585 54.8878 119.284 54.3956 119.284 52.213V48.3949H120.483V52.3222C120.483 53.3313 120.971 54.0129 121.965 54.0129C122.942 54.0129 123.419 53.3761 123.419 52.3222V48.3949H124.618V52.213C124.618 54.2406 123.29 54.8878 121.965 54.8878ZM128.257 49.2948H128.937C130.325 49.2948 131.046 50.0408 131.046 51.5317C131.046 53.2504 130.3 53.8496 128.937 53.8496H128.257V49.2948ZM127.058 54.7578H128.992C131.064 54.7578 132.297 53.6227 132.297 51.5314C132.297 49.7036 131.276 48.3949 128.992 48.3949H127.058V54.7578ZM140.594 54.7578H139.321L138.078 50.2935L136.836 54.7578H135.565L133.614 48.3949H134.948L136.256 53.3761L137.49 48.9129H138.759L139.987 53.3761L141.285 48.3949H142.538L140.594 54.7578ZM144.351 48.3949H145.548V54.7578H144.351V48.3949ZM150.889 54.8878C148.937 54.8878 147.769 53.5582 147.769 51.5221C147.769 49.3206 149.397 48.2668 150.889 48.2668C151.94 48.2668 152.62 48.5943 153.054 48.9763L152.565 49.8669C152.215 49.4756 151.738 49.1209 150.889 49.1209C149.811 49.1209 149.01 50.077 149.01 51.5221C149.01 53.0035 149.811 54.0315 150.944 54.0315C151.598 54.0315 151.976 53.8672 152.132 53.7236V52.1038H150.695V51.231H153.285V54.2867C152.73 54.6225 151.985 54.8878 150.889 54.8878ZM154.932 51.5128H157.446V52.3046H154.932V51.5128ZM119.03 66.4514L118.81 61.6137L117.177 65.5775H116.09L114.424 61.6137L114.23 66.4514H113.061L113.438 60.0844H114.931L116.689 64.3029L118.358 60.0844H119.849L120.225 66.4514H119.03ZM123.937 64.0501L124.94 61.2683L125.963 64.0501H123.937ZM126.275 64.9034L126.837 66.4514H128.164L125.624 60.0844H124.37L121.809 66.4514H123.073L123.643 64.9034H126.275ZM134.048 66.4514L132.307 63.8836L130.532 66.4514H129.095L131.563 63.1512L129.288 60.0844H130.789L132.373 62.4481L133.92 60.0844H135.357L133.091 63.1512L135.549 66.4514H134.048ZM137.309 60.0844H138.508V66.4514H137.309V60.0844ZM146.888 66.4514L146.664 61.6137L145.035 65.5775H143.948L142.282 61.6137L142.088 66.4514H140.919L141.297 60.0844H142.789L144.547 64.3029L146.215 60.0844H147.708L148.083 66.4514H146.888ZM150.497 60.0844H151.692V66.4514H150.497V60.0844ZM158.646 66.4514V65.5045H155.461V60.0844H154.263V66.4514H158.646ZM160.683 60.0844H161.879V66.4514H160.683V60.0844ZM166.789 61.2683L165.785 64.0501H167.81L166.789 61.2683ZM168.685 66.4514L168.123 64.9034H165.489L164.919 66.4514H163.657L166.216 60.0844H167.469L170.013 66.4514H168.685ZM172.931 61.7053L175.619 66.4514H177.184V60.0844H176.008V64.8305L173.317 60.0844H171.751V66.4514H172.931V61.7053ZM184.009 64.6848C184.009 63.7236 183.421 63.2679 182.693 62.9579L181.422 62.4231C181.025 62.2588 180.611 62.0401 180.611 61.5847C180.611 61.2206 180.934 60.8129 181.643 60.8129C182.445 60.8129 182.896 61.1666 183.264 61.614L183.771 60.8233C183.308 60.277 182.499 59.9577 181.643 59.9577C180.611 59.9577 179.385 60.558 179.385 61.7855C179.385 62.5688 179.919 63.086 180.611 63.3774L181.882 63.9132C182.379 64.1234 182.756 64.3585 182.756 64.86C182.756 65.2678 182.379 65.7235 181.569 65.7235C180.749 65.7235 180.217 65.3594 179.753 64.8414L179.249 65.6404C179.552 65.9962 180.279 66.5768 181.55 66.5768C183.483 66.5763 184.009 65.3402 184.009 64.6848ZM185.547 63.2035H188.06V63.9963H185.547V63.2035ZM115.807 78.2698C114.424 78.2698 113.127 77.7758 113.127 75.5961V71.7759H114.322V75.7021C114.322 76.7113 114.811 77.3957 115.807 77.3957C116.781 77.3957 117.261 76.7589 117.261 75.7021V71.7759H118.456V75.5961C118.456 77.6227 117.133 78.2698 115.807 78.2698ZM122.077 73.3925L124.767 78.1399H126.33V71.7759H125.153V76.5219L122.464 71.7759H120.897V78.1399H122.077V73.3925ZM130.098 71.7759H128.9V78.1399H130.098V71.7759ZM134.251 78.1399H135.52L138.081 71.7759H136.783L134.914 76.9403L133.043 71.7759H131.689L134.251 78.1399ZM139.857 78.1399V71.7759H144.177V72.7038H141.055V74.3769H143.929V75.2861H141.055V77.1963H144.298V78.1399H139.857ZM147.547 72.6747H148.579C149.352 72.6747 149.731 73.0681 149.731 73.5488C149.731 74.0772 149.502 74.5225 148.579 74.5225H147.547V72.6747ZM148.765 76.2225L150.062 78.1399H151.491L149.833 75.8041C149.749 75.6846 149.511 75.3753 149.325 75.2579C149.877 75.1956 150.965 74.7481 150.965 73.5486C150.965 72.3658 149.943 71.7759 148.81 71.7759H146.351V78.1399H147.547V75.3935H147.844C148.146 75.3935 148.433 75.7314 148.765 76.2225ZM155.064 78.2698C153.792 78.2698 153.065 77.6852 152.76 77.3334L153.267 76.5323C153.729 77.0503 154.263 77.4144 155.082 77.4144C155.892 77.4144 156.27 76.9587 156.27 76.5509C156.27 76.0483 155.892 75.8124 155.395 75.6041L154.124 75.0672C153.432 74.7758 152.899 74.2589 152.899 73.4753C152.899 72.2478 154.124 71.6475 155.155 71.6475C156.013 71.6475 156.821 71.9647 157.284 72.5109L156.777 73.3017C156.409 72.8574 155.958 72.5037 155.155 72.5037C154.446 72.5037 154.124 72.9115 154.124 73.2756C154.124 73.7312 154.539 73.9496 154.935 74.1132L156.204 74.649C156.932 74.959 157.523 75.4137 157.523 76.3759C157.522 77.0316 156.997 78.2698 155.064 78.2698ZM159.677 71.7759H160.875V78.1399H159.677V71.7759ZM166.022 72.7227V78.1399H164.826V72.7227H162.661V71.7759H168.186V72.7227H166.022ZM172.553 70.5835C172.553 70.9039 172.836 71.1953 173.178 71.1953C173.52 71.1953 173.804 70.9042 173.804 70.5835C173.804 70.2674 173.527 69.976 173.178 69.976C172.829 69.976 172.553 70.2671 172.553 70.5835ZM171.271 75.7394L172.274 72.9586L173.296 75.7394H171.271ZM170.775 70.5835C170.775 70.9039 171.06 71.1953 171.399 71.1953C171.74 71.1953 172.028 70.9042 172.028 70.5835C172.028 70.2674 171.751 69.976 171.399 69.976C171.049 69.976 170.775 70.2671 170.775 70.5835ZM173.612 76.5949L174.174 78.1399H175.498L172.958 71.7759H171.704L169.145 78.1399H170.407L170.976 76.5949H173.612ZM179.816 72.7227V78.1399H178.621V72.7227H176.458V71.7759H181.982V72.7227H179.816ZM118.81 84.9958L119.03 89.8302H120.225L119.849 83.4665H118.358L116.689 87.6849L114.931 83.4665H113.438L113.061 89.8302H114.23L114.424 84.9958L116.09 88.9596H117.177L118.81 84.9958ZM125.992 82.8837C125.649 82.8837 125.364 82.5924 125.364 82.2752C125.364 81.958 125.642 81.6666 125.992 81.6666C126.34 81.6666 126.628 81.958 126.628 82.2752C126.628 82.5924 126.33 82.8837 125.992 82.8837ZM124.213 82.8837C123.874 82.8837 123.588 82.5924 123.588 82.2752C123.588 81.958 123.864 81.6666 124.213 81.6666C124.562 81.6666 124.849 81.958 124.849 82.2752C124.849 82.5924 124.555 82.8837 124.213 82.8837ZM125.191 89.9583C123.808 89.9583 122.511 89.4693 122.511 87.2846V83.4665H123.706V87.3959C123.706 88.4051 124.195 89.0877 125.191 89.0877C126.165 89.0877 126.645 88.4498 126.645 87.3959V83.4665H127.841V87.2846C127.841 89.3132 126.517 89.9583 125.191 89.9583ZM131.461 85.0863L134.152 89.8302H135.714V83.4665H134.538V88.2136L131.848 83.4665H130.281V89.8302H131.461V85.0863ZM140.956 89.9583C138.875 89.9583 137.898 88.3593 137.898 86.6031C137.898 84.8844 139.085 83.3384 140.956 83.3384C141.879 83.3384 142.596 83.6401 143.084 84.1478L142.614 85.032L142.591 85.007C142.239 84.6142 141.878 84.2122 140.975 84.2122C139.886 84.2122 139.151 85.2589 139.151 86.6031C139.151 87.9222 139.943 89.0874 140.985 89.0874C141.751 89.0874 142.254 88.8315 142.797 88.2573L143.257 89.1676C142.512 89.7325 141.971 89.9583 140.956 89.9583ZM149.197 86.9485V89.8302H150.394V83.4665H149.197V86.0776H146.325V83.4665H145.128V89.8302H146.325V86.9485H149.197ZM152.929 89.8302V83.4665H157.247V84.3955H154.126V86.0672H156.999V86.9775H154.126V88.8866H157.367V89.8302H152.929ZM160.6 85.0863L163.289 89.8302H164.855V83.4665H163.676V88.2136L160.984 83.4665H159.42V89.8302H160.6V85.0863Z" fill="#091414"/>
</svg>
