<svg width="438" height="69" viewBox="0 0 438 69" fill="none" xmlns="http://www.w3.org/2000/svg">
<path d="M27.8139 26.1824C21.001 26.1824 16.0912 30.4082 16.0912 40.1865C16.0912 49.7113 20.7904 54.4188 27.9318 54.4188C35.0733 54.4188 37.6418 49.6015 38.9808 42.8826L53.609 45.68C51.832 59.5742 44.1179 68.4314 28.2519 68.4314C11.5099 68.4314 0.460938 59.0164 0.460938 40.6345C0.460938 22.7089 11.291 12.2882 27.9318 12.2882C44.5727 12.2882 51.512 20.4692 53.609 34.7015L38.8714 36.8313C37.6418 30.6617 34.6269 26.1824 27.8139 26.1824Z" fill="#091414"/>
<path d="M60.1865 40.3049C60.1865 22.5568 70.9071 12.2882 87.6574 12.2882C104.408 12.2882 114.994 22.599 114.994 40.3049C114.994 57.7825 104.61 68.4314 87.649 68.4314C70.5702 68.4314 60.1865 57.7825 60.1865 40.3049ZM75.48 40.1865C75.48 48.8155 79.6907 54.4188 87.5395 54.4188C95.3884 54.4188 99.8349 48.8155 99.8349 40.1865C99.8349 31.5576 95.3715 26.1824 87.6743 26.1824C79.977 26.1824 75.48 31.6843 75.48 40.1865Z" fill="#091414"/>
<path d="M138.767 66.8594H123.474V13.7503H138.767V28.6503H138.885C141.344 16.4379 147.702 12.2882 156.191 12.2882C167.695 12.2882 172.495 19.8945 172.495 31.3378V66.834H157.336V35.7073C157.336 30.2138 154.877 26.0726 148.511 26.0726C142.371 26.0726 138.792 29.656 138.792 35.7073L138.767 66.8594Z" fill="#091414"/>
<path d="M240.474 66.8594H225.172V13.7503H240.474V28.6503H240.592C243.042 16.4717 249.4 12.2882 257.889 12.2882C269.385 12.2882 274.193 19.8945 274.193 31.3378V66.834H259.001V35.7073C259.001 30.2138 256.55 26.0726 250.184 26.0726C244.044 26.0726 240.465 29.656 240.465 35.7073L240.474 66.8594Z" fill="#091414"/>
<path d="M284.67 41.4204C284.67 23.0469 294.835 12.2882 312.031 12.2882C328.335 12.2882 336.26 22.7089 336.26 37.1609C336.26 39.5189 336.26 41.3106 336.033 44.2263H299.82C300.831 51.8327 304.873 55.2132 311.998 55.2132C319.122 55.2132 321.379 51.7397 322.6 47.6069L335.78 51.3087C333.253 60.9434 326.289 68.3384 311.77 68.3384C295.837 68.313 284.67 59.1263 284.67 41.4204ZM299.972 35.5974H322.306C321.859 28.5404 318.398 24.9485 311.585 24.9485C304.772 24.9485 300.974 28.0925 299.972 35.5974V35.5974Z" fill="#091414"/>
<path d="M370.072 26.1824C363.259 26.1824 358.349 30.4082 358.349 40.1865C358.375 49.7113 363.04 54.4188 370.165 54.4188C377.289 54.4188 379.875 49.6015 381.205 42.8826L395.842 45.68C394.048 59.5742 386.351 68.4314 370.493 68.4314C353.743 68.4314 342.702 59.0164 342.702 40.6345C342.702 22.7089 353.532 12.2882 370.173 12.2882C386.814 12.2882 393.753 20.4692 395.85 34.7015L381.113 36.8313C379.9 30.6617 376.902 26.1824 370.072 26.1824Z" fill="#091414"/>
<path d="M407.463 26.5205H401.324V13.7504H407.463V0.41394H422.622V13.7504H436.61V26.5205H422.647V47.252C422.647 51.4777 424.214 53.523 428.795 53.523C431.141 53.3681 433.462 52.9543 435.718 52.2891L437.402 66.4115C433.389 67.8274 429.157 68.5115 424.904 68.4314C412.626 68.4314 407.489 60.2504 407.489 50.1678L407.463 26.5205Z" fill="#091414"/>
<path d="M185.894 45.8913C190.498 45.8913 194.231 42.1453 194.231 37.5243C194.231 32.9034 190.498 29.1573 185.894 29.1573C181.289 29.1573 177.557 32.9034 177.557 37.5243C177.557 42.1453 181.289 45.8913 185.894 45.8913Z" fill="#E94B67"/>
<path d="M210.948 45.8913C215.552 45.8913 219.285 42.1453 219.285 37.5243C219.285 32.9034 215.552 29.1573 210.948 29.1573C206.343 29.1573 202.61 32.9034 202.61 37.5243C202.61 42.1453 206.343 45.8913 210.948 45.8913Z" fill="#E94B67"/>
</svg>
